<svg width="48" height="34" viewBox="0 0 48 34" fill="none" xmlns="http://www.w3.org/2000/svg">
<path d="M45.0303 18.6132C43.7817 19.3568 42.8722 20.6133 42.7026 22.0786C37.0421 22.534 31.2421 22.1204 25.693 23.521C20.1625 24.9164 14.9265 27.3406 9.8643 29.9256C9.46652 29.3704 8.92585 28.9341 8.30013 28.6635C7.6744 28.3928 6.98716 28.298 6.3119 28.3892C5.16662 23.8897 4.01301 19.3927 2.85107 14.898C3.98734 13.6927 4.82809 12.0498 4.91238 10.3662C9.94546 7.80831 15.1273 5.3737 20.6245 3.98667C26.1716 2.58606 31.9716 3.00071 37.63 2.54533C38.5197 3.83313 39.9442 4.93607 41.5341 5.14705C42.6981 9.6361 43.8635 14.1248 45.0303 18.6132Z" fill="#54AFF5"/>
<path d="M29.6095 12.8018C30.546 16.3749 29.0612 20.6436 25.1977 21.6003C21.3341 22.557 17.8816 19.3223 16.9826 15.7817C16.1075 12.335 17.1626 6.99364 21.1188 5.89697C25.1394 4.78254 28.7261 9.43348 29.6095 12.8018Z" fill="#1F8CDF"/>
<path d="M26.3943 16.5211C26.0717 17.0068 25.5618 17.3692 24.8782 17.6387L25.2008 18.8837C24.7419 18.9881 24.5151 19.0508 24.0562 19.174L23.744 17.952C23.2647 18.0478 22.7753 18.0828 22.2873 18.0565C21.8482 18.0349 21.4162 17.937 21.0105 17.7671C21.0959 17.2825 21.1385 17.036 21.2238 16.5577C21.9533 16.8573 22.7541 16.9361 23.5276 16.7843L22.922 14.4531C22.4664 14.4659 22.0105 14.4453 21.5579 14.3915C21.185 14.3438 20.8308 14.1998 20.5298 13.9737C20.2239 13.7439 20.0078 13.3864 19.8816 12.9011C19.7762 12.5072 19.7798 12.0919 19.892 11.6999C20.0097 11.2937 20.2215 10.9211 20.51 10.6127C20.8251 10.2742 21.2105 10.0096 21.639 9.83768C21.51 9.34052 21.4455 9.0909 21.3154 8.59374C21.7701 8.46945 21.998 8.40887 22.46 8.30234C22.588 8.79636 22.6515 9.04285 22.7805 9.53583C23.2193 9.48804 23.6628 9.50776 24.0957 9.59432C24.4941 9.67298 24.8763 9.81921 25.2258 10.0267C25.1331 10.479 25.0874 10.7056 24.9958 11.16C24.3226 10.8038 23.6545 10.6503 22.9938 10.7098C23.2467 11.6822 23.3726 12.172 23.6254 13.1423C24.0832 13.1452 24.5395 13.1942 24.9875 13.2885C25.3622 13.3744 25.7106 13.55 26.003 13.8003C26.3265 14.0874 26.5512 14.4698 26.6451 14.8928C26.7256 15.166 26.7449 15.4537 26.7016 15.7352C26.6582 16.0167 26.5533 16.2851 26.3943 16.5211ZM21.7119 12.9355C21.9839 13.0572 22.2768 13.1246 22.5745 13.134L22.0126 10.9667C21.7392 11.0948 21.5125 11.3055 21.3643 11.5694C21.2334 11.8175 21.2035 12.107 21.2811 12.3767C21.3065 12.4964 21.3584 12.6087 21.433 12.7054C21.5076 12.8022 21.6029 12.8808 21.7119 12.9355ZM25.1175 15.9456C25.2382 15.7103 25.2614 15.4366 25.1821 15.1842C25.1571 15.0755 25.1089 14.9735 25.0408 14.8853C24.9727 14.7971 24.8864 14.7248 24.7877 14.6735C24.5323 14.5513 24.2546 14.4834 23.9719 14.474C24.18 15.2761 24.2841 15.6772 24.4922 16.4804C24.7523 16.374 24.9715 16.1865 25.1175 15.9456Z" fill="#54AFF5"/>
<path d="M36.8662 0.849138C31.3077 1.2617 25.6284 0.900317 20.1729 2.25706C14.785 3.59709 9.68532 5.99201 4.75005 8.48825C3.15595 9.30397 1.57537 10.1479 0 11.0002L1.3142 16.0605C2.42966 20.3532 3.54476 24.6462 4.65953 28.9396L5.97061 33.9833V34C7.49395 33.1488 9.0277 32.3143 10.5791 31.5153C10.5791 31.51 10.5791 31.5048 10.5791 31.4996C15.5508 28.9741 20.7119 26.5907 26.1425 25.2402C31.5938 23.8824 37.2762 24.2448 42.8369 23.8333C44.5714 23.6746 46.3143 23.4343 48 22.9842L46.6858 17.9228C45.5724 13.6336 44.4587 9.34609 43.3446 5.06036L42.0304 0C40.3437 0.450158 38.6039 0.690382 36.8662 0.849138ZM45.0303 18.6132C43.7817 19.3568 42.8722 20.6133 42.7026 22.0786C37.0421 22.534 31.2421 22.1204 25.693 23.521C20.1625 24.9164 14.9265 27.3406 9.8643 29.9256C9.46652 29.3704 8.92585 28.9341 8.30013 28.6635C7.6744 28.3928 6.98716 28.298 6.3119 28.3892C5.16662 23.8897 4.01301 19.3927 2.85107 14.898C3.98734 13.6927 4.82809 12.0498 4.91238 10.3662C9.94546 7.80831 15.1273 5.3737 20.6245 3.98667C26.1716 2.58606 31.9716 3.00071 37.63 2.54533C38.5197 3.83313 39.9442 4.93607 41.5341 5.14705C42.6981 9.6361 43.8635 14.1248 45.0303 18.6132Z" fill="#1F8CDF"/>
</svg>
