<svg width="30" height="30" viewBox="0 0 30 30" fill="none" xmlns="http://www.w3.org/2000/svg">
<g clip-path="url(#clip0_33_46)">
<path d="M22.5 3.75C23.4946 3.75 24.4484 4.14509 25.1517 4.84835C25.8549 5.55161 26.25 6.50544 26.25 7.5V22.5C26.25 23.4946 25.8549 24.4484 25.1517 25.1517C24.4484 25.8549 23.4946 26.25 22.5 26.25H7.5C6.50544 26.25 5.55161 25.8549 4.84835 25.1517C4.14509 24.4484 3.75 23.4946 3.75 22.5V7.5C3.75 6.50544 4.14509 5.55161 4.84835 4.84835C5.55161 4.14509 6.50544 3.75 7.5 3.75H22.5ZM22.5 6.25H7.5C7.16848 6.25 6.85054 6.3817 6.61612 6.61612C6.3817 6.85054 6.25 7.16848 6.25 7.5V22.5C6.25 22.8315 6.3817 23.1495 6.61612 23.3839C6.85054 23.6183 7.16848 23.75 7.5 23.75H22.5C22.8315 23.75 23.1495 23.6183 23.3839 23.3839C23.6183 23.1495 23.75 22.8315 23.75 22.5V7.5C23.75 7.16848 23.6183 6.85054 23.3839 6.61612C23.1495 6.3817 22.8315 6.25 22.5 6.25ZM10 12.5C10.3062 12.5 10.6017 12.6124 10.8305 12.8159C11.0593 13.0193 11.2054 13.2997 11.2413 13.6038L11.25 13.75V20C11.2496 20.3186 11.1277 20.625 10.9089 20.8567C10.6902 21.0884 10.3913 21.2278 10.0733 21.2465C9.7552 21.2651 9.44203 21.1617 9.19771 20.9572C8.95339 20.7527 8.79638 20.4626 8.75875 20.1463L8.75 20V13.75C8.75 13.4185 8.8817 13.1005 9.11612 12.8661C9.35054 12.6317 9.66848 12.5 10 12.5ZM13.75 11.25C14.0427 11.25 14.3262 11.3527 14.551 11.5402C14.7758 11.7277 14.9276 11.9882 14.98 12.2762C15.2315 12.1304 15.4916 11.9997 15.7588 11.885C16.5925 11.5288 17.8413 11.3325 18.9688 11.6862C19.56 11.8737 20.1538 12.2237 20.5938 12.82C20.9875 13.3512 21.2 13.9975 21.2425 14.7238L21.25 15V20C21.2496 20.3186 21.1277 20.625 20.9089 20.8567C20.6902 21.0884 20.3913 21.2278 20.0733 21.2465C19.7552 21.2651 19.442 21.1617 19.1977 20.9572C18.9534 20.7527 18.7964 20.4626 18.7587 20.1463L18.75 20V15C18.75 14.5875 18.65 14.395 18.585 14.3062C18.4917 14.1902 18.3631 14.1077 18.2188 14.0712C17.7837 13.9338 17.1575 14.0063 16.7412 14.1838C16.1162 14.4513 15.5437 14.8713 15.1538 15.26L15 15.425V20C14.9996 20.3186 14.8777 20.625 14.6589 20.8567C14.4402 21.0884 14.1413 21.2278 13.8233 21.2465C13.5052 21.2651 13.192 21.1617 12.9477 20.9572C12.7034 20.7527 12.5464 20.4626 12.5087 20.1463L12.5 20V12.5C12.5 12.1685 12.6317 11.8505 12.8661 11.6161C13.1005 11.3817 13.4185 11.25 13.75 11.25ZM10 8.75C10.3315 8.75 10.6495 8.8817 10.8839 9.11612C11.1183 9.35054 11.25 9.66848 11.25 10C11.25 10.3315 11.1183 10.6495 10.8839 10.8839C10.6495 11.1183 10.3315 11.25 10 11.25C9.66848 11.25 9.35054 11.1183 9.11612 10.8839C8.8817 10.6495 8.75 10.3315 8.75 10C8.75 9.66848 8.8817 9.35054 9.11612 9.11612C9.35054 8.8817 9.66848 8.75 10 8.75Z" fill="url(#paint0_linear_33_46)"/>
</g>
<defs>
<linearGradient id="paint0_linear_33_46" x1="15" y1="3.75" x2="15" y2="26.25" gradientUnits="userSpaceOnUse">
<stop stop-color="#0671C2"/>
<stop offset="1" stop-color="#54AFF5"/>
</linearGradient>
<clipPath id="clip0_33_46">
<rect width="30" height="30" fill="white"/>
</clipPath>
</defs>
</svg>
