<svg width="42" height="41" viewBox="0 0 42 41" fill="none" xmlns="http://www.w3.org/2000/svg">
<path d="M17.708 41C27.4879 41 35.4161 33.1229 35.4161 23.4059C35.4161 13.689 27.4879 5.81182 17.708 5.81182C7.92816 5.81182 0 13.689 0 23.4059C0 33.1229 7.92816 41 17.708 41Z" fill="#1887DC"/>
<path d="M17.708 38.4503C26.0706 38.4503 32.8499 31.7147 32.8499 23.4059C32.8499 15.0971 26.0706 8.36152 17.708 8.36152C9.34544 8.36152 2.56622 15.0971 2.56622 23.4059C2.56622 31.7147 9.34544 38.4503 17.708 38.4503Z" fill="#54AFF5"/>
<path d="M17.708 36.2438C24.8442 36.2438 30.6291 30.4961 30.6291 23.4059C30.6291 16.3157 24.8442 10.568 17.708 10.568C10.5719 10.568 4.78698 16.3157 4.78698 23.4059C4.78698 30.4961 10.5719 36.2438 17.708 36.2438Z" fill="white"/>
<path d="M25.1605 24.6142C25.8336 20.5253 23.0432 16.6683 18.9278 15.9995C14.8124 15.3306 10.9305 18.1031 10.2573 22.192C9.58416 26.2809 12.3746 30.1379 16.49 30.8067C20.6054 31.4756 24.4873 28.7031 25.1605 24.6142Z" fill="#1887DC"/>
<path d="M22.8871 24.2452C23.3538 21.4043 21.4142 18.7254 18.5549 18.2618C15.6957 17.7981 12.9995 19.7252 12.5328 22.566C12.0661 25.4069 14.0057 28.0857 16.8649 28.5494C19.7242 29.0131 22.4204 27.086 22.8871 24.2452Z" fill="#54AFF5"/>
<path d="M17.708 26.8122C19.6015 26.8122 21.1364 25.2872 21.1364 23.4059C21.1364 21.5246 19.6015 19.9996 17.708 19.9996C15.8146 19.9996 14.2797 21.5246 14.2797 23.4059C14.2797 25.2872 15.8146 26.8122 17.708 26.8122Z" fill="white"/>
<path d="M32.9774 7.98584L19.8606 21.0182L20.8398 21.991L33.9565 8.95868L32.9774 7.98584Z" fill="#214BA0"/>
<path d="M32.2693 9.66521L37.1114 4.85424L42 5.17151L36.6005 10.5363L32.2693 9.66521Z" fill="#3F57A6"/>
<path d="M32.2693 9.66521L37.1114 4.85424L36.7921 0L31.3955 5.36187L32.2693 9.66521Z" fill="#16347A"/>
<path d="M17.708 24.1327L23.0698 22.2753L19.5776 18.8084L17.708 24.1327Z" fill="#3F57A6"/>
<path d="M17.708 24.1327L23.0698 22.2753L21.3222 20.5418L17.708 24.1327Z" fill="#16347A"/>
</svg>
