<svg width="35" height="36" viewBox="0 0 35 36" fill="none" xmlns="http://www.w3.org/2000/svg">
<path d="M20.3242 3.95032L29.9358 24.7141L21.6782 24.1374C20.4723 24.0537 19.2678 23.9571 18.0605 23.8994C17.6334 23.8778 17.3942 23.7206 17.2063 23.3126C15.8366 20.3119 14.4357 17.3257 13.0775 14.3221C13.0295 14.2025 13.0084 14.0736 13.0155 13.9447C13.0227 13.8158 13.0579 13.6901 13.1188 13.5767C15.4323 10.4159 17.7715 7.27398 20.1078 4.13057C20.1734 4.0628 20.2459 4.00237 20.3242 3.95032Z" fill="#54AFF5"/>
<path d="M11.7263 14.7345C13.1999 17.9154 14.635 21.0127 16.0972 24.172C14.1225 25.1135 12.1634 26.0652 10.1901 26.9823C8.92445 27.572 7.67869 28.2613 6.34608 28.6419C3.83036 29.3629 1.24772 27.908 0.327993 25.438C-0.110321 24.2575 -0.109297 22.9558 0.330875 21.776C0.771047 20.5962 1.62026 19.6191 2.71985 19.0272C3.89158 18.4014 5.10887 17.8664 6.30907 17.2968C8.08303 16.4533 9.85984 15.617 11.7263 14.7345Z" fill="#0671C2"/>
<path d="M35 23.7005C34.9103 24.6334 34.3721 25.3096 33.4809 25.5346C32.6266 25.7509 31.7724 25.3515 31.3681 24.4892C30.5808 22.8266 29.8205 21.1511 29.0474 19.4814C26.4847 13.953 23.9263 8.4256 21.3721 2.89916C20.7485 1.54663 21.3507 0.263307 22.6862 0.0282721C23.5618 -0.126015 24.3263 0.35559 24.7933 1.36494C26.31 4.63428 27.823 7.90698 29.3321 11.1831C31.089 14.9773 32.845 18.7743 34.5999 22.5743C34.7665 22.9305 34.8676 23.3227 35 23.7005Z" fill="#0671C2"/>
<path d="M9.3174 28.9563L12.3684 27.5014C14.1965 29.4292 16.0132 31.3182 17.7957 33.2403C18.4591 33.9612 18.4022 34.9706 17.753 35.5618C17.602 35.7076 17.4238 35.8214 17.2288 35.8965C17.0338 35.9715 16.8259 36.0064 16.6175 35.999C16.409 35.9916 16.204 35.9421 16.0147 35.8534C15.8254 35.7647 15.6554 35.6386 15.5149 35.4825C13.469 33.3527 11.4444 31.1999 9.3174 28.9563Z" fill="#54AFF5"/>
<path d="M32.4914 14.6898C31.4763 12.4981 30.4697 10.3251 29.4574 8.13625C30.9609 7.80461 32.2266 8.47222 32.9157 9.9055C33.9963 12.1535 33.8881 13.4945 32.4914 14.6898Z" fill="#54AFF5"/>
</svg>
