<svg width="36" height="32" viewBox="0 0 36 32" fill="none" xmlns="http://www.w3.org/2000/svg">
<path d="M15.9674 31.6499C13.1668 32.186 10.4567 32.2159 7.86256 30.9544C5.63106 29.8686 4.15679 28.0737 3.09265 25.9002C1.85222 23.3645 1.19638 20.664 0.746978 17.9056C0.158732 14.2931 -0.0358276 10.6508 0.00527653 6.99487C0.00527653 6.87714 0.0226316 6.76032 0.0345061 6.60999C1.5373 6.94647 3.00128 7.43504 4.40342 8.068C6.31248 8.92199 8.08635 9.99513 9.63552 11.4024C9.76431 11.5193 9.87301 11.7737 9.8383 11.9304C9.37062 14.0205 9.40807 16.1288 9.60172 18.237C9.84834 20.9357 10.4119 23.5656 11.4971 26.0686C12.2114 27.7168 13.1102 29.2491 14.4538 30.478C14.906 30.8928 15.4257 31.2342 15.9674 31.6499Z" fill="#0671C2"/>
<path d="M20.3171 31.6544C23.1213 30.0451 24.4577 27.4298 25.4551 24.6034C26.5613 21.4709 26.9778 18.2162 26.9011 14.9134C26.8755 13.8222 26.6143 12.74 26.4809 11.6469C26.4626 11.5002 26.5065 11.2802 26.6079 11.1941C29.3107 8.91384 32.4392 7.47484 35.8645 6.63353C35.8901 6.62719 35.9221 6.6444 35.9705 6.65436C35.9705 7.90047 36.0463 9.15654 35.9549 10.399C35.7723 12.922 35.5786 15.4505 35.2306 17.9545C34.8214 20.9013 34.0614 23.772 32.641 26.4264C31.1869 29.1432 29.0421 31.0141 25.9612 31.7268C24.3773 32.0909 21.5959 32.0728 20.3171 31.6544Z" fill="#0671C2"/>
<path d="M17.9888 31.6354C16.5428 29.9328 12.7147 24.9711 12.2141 17.5832C11.5647 7.98288 17.0123 1.37742 18.2016 0C19.1927 1.02695 25.6323 7.92945 24.6038 17.9988C23.8402 25.4827 19.4083 30.229 17.9888 31.6354Z" fill="#54AFF5"/>
</svg>
