<svg width="45" height="23" viewBox="0 0 45 23" fill="none" xmlns="http://www.w3.org/2000/svg">
<path d="M0 11.5492C0.472423 11.0757 0.928212 10.5988 1.40729 10.145C5.12014 6.65241 9.26216 3.79456 14.0496 1.90358C17.236 0.599272 20.6585 -0.0475795 24.1069 0.00272414C27.8733 0.107347 31.5563 1.12364 34.8329 2.96253C38.1598 4.78774 41.021 7.2378 43.5794 9.99699C44.0518 10.51 44.5076 11.0395 45 11.592C44.5076 12.1412 44.0485 12.6838 43.5528 13.2002C40.6024 16.3315 37.072 18.8746 33.1528 20.6917C29.7434 22.2903 26.003 23.0786 22.2305 22.9938C18.9163 22.8883 15.6566 22.1302 12.6423 20.7641C9.18781 19.1918 5.99875 17.1031 3.1872 14.5715C2.14587 13.654 1.16442 12.6707 0.156366 11.7203C0.109789 11.6742 0.0698654 11.6249 0 11.5492ZM32.687 11.0494C32.6228 9.48085 32.1346 7.958 31.2731 6.63926C30.4914 5.42667 29.4557 4.39394 28.2359 3.61074C27.0161 2.82754 25.6404 2.3121 24.2019 2.09921C22.7634 1.88631 21.2954 1.98092 19.897 2.37663C18.4986 2.77235 17.2023 3.45997 16.0957 4.3931C15.122 5.20191 14.3239 6.19715 13.7496 7.31889C13.1753 8.44063 12.8367 9.66566 12.754 10.9202C12.6713 12.1748 12.8463 13.4329 13.2685 14.6188C13.6907 15.8047 14.3514 16.8939 15.2107 17.8207C16.6036 19.319 18.422 20.3662 20.4274 20.8251C22.4329 21.284 24.5318 21.1332 26.4491 20.3925C30.2351 18.8961 32.6837 15.4299 32.687 11.0494Z" fill="#1F8CDF"/>
<path d="M17.2035 11.569C17.2247 10.8165 17.4021 10.0763 17.7246 9.39437C18.0471 8.71243 18.5079 8.10327 19.0785 7.60466C19.649 7.10605 20.3171 6.72863 21.0413 6.49581C21.7655 6.26298 22.5304 6.17973 23.2885 6.2512C25.8436 6.50114 27.8697 8.28031 28.2789 10.6449C28.5201 11.9917 28.2314 13.3787 27.4719 14.522C26.7124 15.6652 25.5395 16.4783 24.1934 16.7947C23.4735 16.9817 22.723 17.0241 21.9862 16.9192C21.2495 16.8143 20.5416 16.5643 19.9043 16.184C19.2671 15.8038 18.7136 15.301 18.2765 14.7054C17.8395 14.1098 17.5278 13.4335 17.3599 12.7167C17.2767 12.3451 17.2534 11.9537 17.2035 11.569Z" fill="#54AFF5"/>
</svg>
