<svg width="30" height="30" viewBox="0 0 30 30" fill="none" xmlns="http://www.w3.org/2000/svg">
<g clip-path="url(#clip0_33_50)">
<path fill-rule="evenodd" clip-rule="evenodd" d="M24.6912 5.82375C24.7993 5.70014 24.882 5.55646 24.9346 5.40089C24.9872 5.24533 25.0086 5.08094 24.9976 4.9171C24.9866 4.75326 24.9435 4.59319 24.8707 4.44602C24.7978 4.29885 24.6967 4.16747 24.5731 4.05937C24.4495 3.95128 24.3058 3.86859 24.1503 3.81603C23.9947 3.76346 23.8303 3.74205 23.6665 3.75302C23.5026 3.76399 23.3426 3.80712 23.1954 3.87996C23.0482 3.95279 22.9168 4.05389 22.8088 4.1775L16.4213 11.4775L11 4.25C10.8836 4.09476 10.7326 3.96875 10.559 3.88197C10.3854 3.79518 10.1941 3.75 10 3.75H5C4.76786 3.75 4.54031 3.81464 4.34284 3.93669C4.14537 4.05873 3.98578 4.23335 3.88197 4.44098C3.77815 4.64862 3.7342 4.88106 3.75505 5.11226C3.7759 5.34346 3.86072 5.56429 4 5.75L12.0463 16.4775L5.30875 24.1775C5.20066 24.3011 5.11797 24.4448 5.0654 24.6004C5.01284 24.7559 4.99143 24.9203 5.0024 25.0842C5.01337 25.248 5.0565 25.4081 5.12933 25.5552C5.20216 25.7024 5.30327 25.8338 5.42688 25.9419C5.55048 26.05 5.69417 26.1327 5.84973 26.1852C6.0053 26.2378 6.16969 26.2592 6.33353 26.2482C6.49736 26.2373 6.65744 26.1941 6.80461 26.1213C6.95177 26.0485 7.08316 25.9474 7.19125 25.8237L13.5788 18.5225L19 25.75C19.1164 25.9052 19.2674 26.0312 19.441 26.118C19.6146 26.2048 19.8059 26.25 20 26.25H25C25.2321 26.25 25.4597 26.1854 25.6572 26.0633C25.8546 25.9413 26.0142 25.7666 26.118 25.559C26.2218 25.3514 26.2658 25.1189 26.2449 24.8877C26.2241 24.6565 26.1393 24.4357 26 24.25L17.9537 13.5225L24.6912 5.82375ZM20.625 23.75L7.5 6.25H9.375L22.5 23.75H20.625Z" fill="url(#paint0_linear_33_50)"/>
</g>
<defs>
<linearGradient id="paint0_linear_33_50" x1="15" y1="3.75" x2="15" y2="26.251" gradientUnits="userSpaceOnUse">
<stop stop-color="#0671C2"/>
<stop offset="1" stop-color="#54AFF5"/>
</linearGradient>
<clipPath id="clip0_33_50">
<rect width="30" height="30" fill="white"/>
</clipPath>
</defs>
</svg>
